<svg width="152" height="49" viewBox="0 0 152 49" fill="none" xmlns="http://www.w3.org/2000/svg">
<path d="M21.4814 28.1531L24.3598 21.117C16.4283 17.2791 8.90156 18.8782 6.12966 20.1575C-2.82545 23.8355 0.212891 34.3897 6.6094 35.669L14.765 37.9078C17.0037 38.6989 16.3641 40.4213 14.765 40.6263C9.77567 41.266 5.01027 39.2937 3.25123 38.2276L0.212891 45.2638C7.12112 47.9503 12.153 48.1955 13.8055 47.9823C15.6178 47.9823 20.0421 47.2787 23.2403 44.4642C27.2381 40.9461 25.3801 35.6198 23.5602 33.4302C21.1615 30.5445 12.6862 29.2725 12.3664 29.2725C10.6072 29.2725 8.84818 27.3797 11.4069 26.2342C14.695 24.7621 19.5625 27.087 21.4814 28.1531Z" fill="black" stroke="black" stroke-width="0.319826"/>
<path d="M36.9927 47.6551H28.3574V28.6255L36.9927 37.7405V47.6551Z" fill="black" stroke="black" stroke-width="0.319826"/>
<path d="M53.3027 47.815V37.1009L62.0979 25.7471V47.815H53.3027Z" fill="black" stroke="black" stroke-width="0.319826"/>
<path d="M46.0399 46.1179C45.1503 46.1179 44.3158 45.7844 43.7043 45.1733L29.1407 30.1645C27.7514 28.8852 27.6947 26.7181 29.029 25.3275C30.3083 23.9382 32.4754 23.8832 33.8647 25.2175L44.5388 32.8315C45.1503 33.388 46.0949 33.2762 46.5946 32.6101L71.8873 1.36874C73.0003 -0.132312 75.1674 -0.465359 76.668 0.702644C78.1691 1.8135 78.5021 3.98235 77.3346 5.48297L48.7635 44.7285C48.152 45.5064 47.2624 46.0061 46.3162 46.0629C46.2062 46.1179 46.1499 46.1179 46.0399 46.1179Z" fill="#39B54A"/>
<path fill-rule="evenodd" clip-rule="evenodd" d="M85.5938 19.6074L97.7471 47.752L97.8438 47.9756H87.5811L87.5391 47.8799L85.3428 42.8584H75.167L73.4453 47.8672L73.4082 47.9756H63.2949L63.3926 47.751L75.7061 19.6064L75.748 19.5098H85.5518L85.5938 19.6074ZM80.3418 28.8848L77.4629 35.9209L77.373 36.1416H83.6064L83.5166 35.9209L80.6377 28.8848L80.4902 28.5234L80.3418 28.8848Z" fill="black"/>
<path d="M99.04 19.51C104.104 19.5633 114.486 19.6701 115.51 19.6702C116.051 19.6702 116.766 19.8651 117.426 20.0989C118.088 20.3335 118.716 20.6149 119.095 20.804C123.639 22.6891 125.465 26.6727 125.384 30.4797C125.304 34.2028 123.397 37.7946 120.383 39.092L125.879 47.7288L126.035 47.9749H115.422L115.375 47.9006L110.944 40.9387H108.634V47.9749H98.5566L98.5586 47.8127L98.8789 19.6682L98.8809 19.509L99.04 19.51ZM108.314 27.0266V33.5833H112.792C116.79 32.6238 116.374 27.7942 112.792 27.0266H108.314Z" fill="black"/>
<path d="M126.225 26.8665V19.5105H151.971V27.1863H143.815V47.4952H134.54V27.1863H126.225V26.8665Z" fill="black"/>
</svg>
