<svg width="343" height="64" viewBox="0 0 343 64" fill="none" xmlns="http://www.w3.org/2000/svg">
<g clip-path="url(#clip0_173_536)">
<path d="M133.635 3.34955L107.605 63.6337H116.777L137.74 14.1632L158.789 63.6337H168.136L142.108 3.34955H133.635Z" fill="#F7C334"/>
<path d="M62.9424 2.3521C59.0311 3.9203 55.6483 6.101 52.793 8.89439C49.9379 11.6894 47.7121 15.0248 46.1132 18.902C44.5141 22.7788 43.7148 27.0559 43.7148 31.7314C43.7148 36.4069 44.5141 40.6979 46.1132 44.6037C47.7121 48.5097 49.9379 51.8738 52.793 54.6958C55.6483 57.5188 59.0311 59.7143 62.9424 61.2816C66.854 62.8494 71.0932 63.6337 75.661 63.6337C80.2285 63.6337 84.4676 62.8494 88.3792 61.2816C92.2902 59.7143 95.6733 57.5188 98.5287 54.6958C101.382 51.8738 103.611 48.5097 105.209 44.6037C106.807 40.6979 107.607 36.4069 107.607 31.7314C107.607 27.0559 106.807 22.7788 105.209 18.902C103.611 15.0248 101.382 11.6894 98.5287 8.89439C95.6733 6.101 92.2902 3.9203 88.3792 2.3521C84.4676 0.783977 80.2285 0.000244141 75.661 0.000244141C71.0932 0.000244141 66.854 0.783977 62.9424 2.3521ZM66.068 54.2686C63.2139 52.9855 60.7871 51.2318 58.7882 49.0082C56.7901 46.7848 55.2483 44.1904 54.1635 41.2254C53.0783 38.2593 52.5363 35.0952 52.5363 31.7314C52.5363 28.4245 53.0783 25.3027 54.1635 22.366C55.2483 19.4297 56.7901 16.8491 58.7882 14.6255C60.7871 12.4004 63.2139 10.6342 66.068 9.3218C68.9233 8.01149 72.1202 7.35508 75.661 7.35508C79.2011 7.35508 82.3986 8.01149 85.2534 9.3218C88.109 10.6342 90.5336 12.4004 92.5329 14.6255C94.5321 16.8491 96.0725 19.4297 97.1575 22.366C98.2435 25.3027 98.7853 28.4245 98.7853 31.7314C98.7853 35.0952 98.2435 38.2593 97.1575 41.2254C96.0725 44.1904 94.5321 46.7848 92.5329 49.0082C90.5336 51.2318 88.109 52.9855 85.2534 54.2686C82.3986 55.5516 79.2011 56.1931 75.661 56.1931C72.1202 56.1931 68.9233 55.5516 66.068 54.2686Z" fill="#E83A3E"/>
<path d="M184.002 2.3521C180.089 3.9203 176.707 6.101 173.851 8.89439C170.997 11.6894 168.77 15.0248 167.171 18.902C165.573 22.7788 164.773 27.0559 164.773 31.7314C164.773 36.4069 165.573 40.6979 167.171 44.6037C168.77 48.5097 170.997 51.8738 173.851 54.6958C176.707 57.5188 180.089 59.7143 184.002 61.2816C187.913 62.8494 192.151 63.6337 196.719 63.6337C201.288 63.6337 205.527 62.8494 209.438 61.2816C213.349 59.7143 216.733 57.5188 219.587 54.6958C222.441 51.8738 224.67 48.5097 226.268 44.6037C227.865 40.6979 228.666 36.4069 228.666 31.7314C228.666 27.0559 227.865 22.7788 226.268 18.902C224.67 15.0248 222.441 11.6894 219.587 8.89439C216.733 6.101 213.349 3.9203 209.438 2.3521C205.527 0.783977 201.288 0.000244141 196.719 0.000244141C192.151 0.000244141 187.913 0.783977 184.002 2.3521ZM187.126 54.2686C184.273 52.9855 181.846 51.2318 179.847 49.0082C177.849 46.7848 176.307 44.1904 175.222 41.2254C174.137 38.2593 173.595 35.0952 173.595 31.7314C173.595 28.4245 174.137 25.3027 175.222 22.366C176.307 19.4297 177.849 16.8491 179.847 14.6255C181.846 12.4004 184.273 10.6342 187.126 9.3218C189.982 8.01149 193.18 7.35508 196.719 7.35508C200.261 7.35508 203.458 8.01149 206.312 9.3218C209.168 10.6342 211.594 12.4004 213.591 14.6255C215.592 16.8491 217.131 19.4297 218.216 22.366C219.303 25.3027 219.844 28.4245 219.844 31.7314C219.844 35.0952 219.303 38.2593 218.216 41.2254C217.131 44.1904 215.592 46.7848 213.591 49.0082C211.594 51.2318 209.168 52.9855 206.312 54.2686C203.458 55.5516 200.261 56.1931 196.719 56.1931C193.18 56.1931 189.982 55.5516 187.126 54.2686Z" fill="#60B5DC"/>
<path d="M302.647 3.34937V63.6336H321.765C324.814 63.6336 327.631 63.2653 330.226 62.5267C332.819 61.7897 335.062 60.6672 336.951 59.1635C338.841 57.6589 340.322 55.7997 341.392 53.5864C342.463 51.3729 343 48.8182 343 45.9232C343 43.0274 342.493 40.5021 341.478 38.3446C340.461 36.1882 339.024 34.3719 337.163 32.8957C335.301 31.4199 333.088 30.3128 330.52 29.5747C327.955 28.8367 325.122 28.4678 322.02 28.4678H310.852V10.6722H336.23V3.34937H302.647ZM310.852 35.7909H321.343C325.403 35.7909 328.689 36.6139 331.199 38.2592C333.707 39.9061 334.964 42.4594 334.964 45.9232C334.964 49.2154 333.738 51.7696 331.283 53.5864C328.829 55.403 325.489 56.3111 321.258 56.3111H310.852V35.7909Z" fill="#E83A3E"/>
<path d="M237.299 52.2311C236.028 53.5605 235.392 55.1445 235.392 56.9863C235.392 58.7586 236.045 60.3091 237.35 61.638C238.654 62.9691 240.243 63.6326 242.117 63.6326C244.058 63.6326 245.665 62.9514 246.936 61.5883C248.208 60.2239 248.843 58.6554 248.843 56.8838C248.843 55.0429 248.208 53.4746 246.936 52.1798C245.665 50.8845 244.058 50.2367 242.117 50.2367C240.177 50.2367 238.57 50.9017 237.299 52.2311Z" fill="#6DC389"/>
<path d="M248.843 3.34955V10.5866H268.253V63.6337H276.511V10.5866H295.921V3.34955H248.843Z" fill="#6DC389"/>
<path d="M31.5155 3.34955L7.4885 32.1324L34.3335 63.6337H43.7147L16.2761 31.627L40.0444 3.34955H31.5155ZM0 3.34955V63.6337H7.4885V32.1324V3.34955H0Z" fill="#60B5DC"/>
<path d="M133.635 3.34955L107.605 63.6337H116.777L137.74 14.1632L158.789 63.6337H168.136L142.108 3.34955H133.635Z" fill="#F7C334"/>
<path d="M62.9424 2.35212C59.0311 3.9203 55.6483 6.101 52.793 8.89439C49.9379 11.6894 47.7121 15.0248 46.1132 18.902C44.5141 22.7788 43.7148 27.0559 43.7148 31.7314C43.7148 36.4069 44.5141 40.6979 46.1132 44.6037C47.7121 48.5097 49.9379 51.8738 52.793 54.6958C55.6483 57.5188 59.0311 59.7143 62.9424 61.2816C66.854 62.8494 71.0932 63.6337 75.661 63.6337C80.2285 63.6337 84.4676 62.8494 88.3792 61.2816C92.2902 59.7143 95.6733 57.5188 98.5287 54.6958C101.382 51.8738 103.611 48.5097 105.209 44.6037C106.807 40.6979 107.607 36.4069 107.607 31.7314C107.607 27.0559 106.807 22.7788 105.209 18.902C103.611 15.0248 101.382 11.6894 98.5287 8.89439C95.6733 6.101 92.2902 3.9203 88.3792 2.35212C84.4676 0.783977 80.2285 0.000244141 75.661 0.000244141C71.0932 0.000244141 66.854 0.783977 62.9424 2.35212ZM66.068 54.2686C63.2139 52.9855 60.7871 51.2318 58.7882 49.0082C56.7901 46.7848 55.2483 44.1904 54.1635 41.2254C53.0783 38.2593 52.5363 35.0952 52.5363 31.7314C52.5363 28.4245 53.0783 25.3027 54.1635 22.366C55.2483 19.4297 56.7901 16.8491 58.7882 14.6255C60.7871 12.4004 63.2139 10.6342 66.068 9.3218C68.9233 8.01149 72.1202 7.35508 75.661 7.35508C79.2011 7.35508 82.3986 8.01149 85.2534 9.3218C88.109 10.6342 90.5336 12.4004 92.5329 14.6255C94.5321 16.8491 96.0725 19.4297 97.1575 22.366C98.2435 25.3027 98.7853 28.4245 98.7853 31.7314C98.7853 35.0952 98.2435 38.2593 97.1575 41.2254C96.0725 44.1904 94.5321 46.7848 92.5329 49.0082C90.5336 51.2318 88.109 52.9855 85.2534 54.2686C82.3986 55.5516 79.2011 56.1931 75.661 56.1931C72.1202 56.1931 68.9233 55.5516 66.068 54.2686Z" fill="#E83A3E"/>
<path d="M184.002 2.3521C180.089 3.9203 176.707 6.101 173.851 8.89439C170.997 11.6894 168.77 15.0248 167.171 18.902C165.573 22.7788 164.773 27.0559 164.773 31.7314C164.773 36.4069 165.573 40.6979 167.171 44.6037C168.77 48.5097 170.997 51.8738 173.851 54.6958C176.707 57.5188 180.089 59.7143 184.002 61.2816C187.913 62.8494 192.151 63.6337 196.719 63.6337C201.288 63.6337 205.527 62.8494 209.438 61.2816C213.349 59.7143 216.733 57.5188 219.587 54.6958C222.441 51.8738 224.67 48.5097 226.268 44.6037C227.865 40.6979 228.666 36.4069 228.666 31.7314C228.666 27.0559 227.865 22.7788 226.268 18.902C224.67 15.0248 222.441 11.6894 219.587 8.89439C216.733 6.101 213.349 3.9203 209.438 2.3521C205.527 0.783977 201.288 0.000244141 196.719 0.000244141C192.151 0.000244141 187.913 0.783977 184.002 2.3521ZM187.126 54.2686C184.273 52.9855 181.846 51.2318 179.847 49.0082C177.849 46.7848 176.307 44.1904 175.222 41.2254C174.137 38.2593 173.595 35.0952 173.595 31.7314C173.595 28.4245 174.137 25.3027 175.222 22.366C176.307 19.4297 177.849 16.8491 179.847 14.6255C181.846 12.4004 184.273 10.6342 187.126 9.3218C189.982 8.01149 193.18 7.35508 196.719 7.35508C200.261 7.35508 203.458 8.01149 206.312 9.3218C209.168 10.6342 211.594 12.4004 213.591 14.6255C215.592 16.8491 217.131 19.4297 218.216 22.366C219.303 25.3027 219.844 28.4245 219.844 31.7314C219.844 35.0952 219.303 38.2593 218.216 41.2254C217.131 44.1904 215.592 46.7848 213.591 49.0082C211.594 51.2318 209.168 52.9855 206.312 54.2686C203.458 55.5516 200.261 56.1931 196.719 56.1931C193.18 56.1931 189.982 55.5516 187.126 54.2686Z" fill="#60B5DC"/>
<path d="M302.647 3.34937V63.6336H321.765C324.814 63.6336 327.631 63.2653 330.226 62.5267C332.819 61.7897 335.062 60.6672 336.951 59.1635C338.841 57.6589 340.322 55.7997 341.392 53.5864C342.463 51.3729 343 48.8182 343 45.9232C343 43.0274 342.493 40.5021 341.478 38.3446C340.461 36.1882 339.024 34.3719 337.163 32.8957C335.301 31.4199 333.088 30.3128 330.52 29.5747C327.955 28.8367 325.122 28.4678 322.02 28.4678H310.852V10.6722H336.23V3.34937H302.647ZM310.852 35.7909H321.343C325.403 35.7909 328.689 36.6139 331.199 38.2592C333.707 39.9061 334.964 42.4594 334.964 45.9232C334.964 49.2154 333.738 51.7696 331.283 53.5864C328.829 55.403 325.489 56.3111 321.258 56.3111H310.852V35.7909Z" fill="#E83A3E"/>
<path d="M237.299 52.2311C236.028 53.5605 235.392 55.1445 235.392 56.9863C235.392 58.7586 236.045 60.3091 237.35 61.638C238.654 62.9691 240.243 63.6326 242.117 63.6326C244.058 63.6326 245.665 62.9514 246.936 61.5883C248.208 60.2239 248.843 58.6554 248.843 56.8838C248.843 55.0429 248.208 53.4746 246.936 52.1798C245.665 50.8845 244.058 50.2367 242.117 50.2367C240.177 50.2367 238.57 50.9017 237.299 52.2311Z" fill="#6DC389"/>
<path d="M248.843 3.34955V10.5866H268.253V63.6337H276.511V10.5866H295.921V3.34955H248.843Z" fill="#6DC389"/>
<path d="M31.5155 3.34955L7.4885 32.1324L34.3335 63.6337H43.7147L16.2761 31.627L40.0444 3.34955H31.5155ZM0 3.34955V63.6337H7.4885V32.1324V3.34955H0Z" fill="#60B5DC"/>
</g>
<defs>
<clipPath id="clip0_173_536">
<rect width="343" height="63.6335" fill="white"/>
</clipPath>
</defs>
</svg>
