<svg width="333" height="106" viewBox="0 0 333 106" fill="none" xmlns="http://www.w3.org/2000/svg">
<path d="M46.9679 61.556L53.2615 46.1716C35.9193 37.7802 19.4624 41.2766 13.4017 44.0738C-6.17841 52.1156 0.464844 75.1922 14.4506 77.9893L32.2825 82.8843C37.1775 84.614 35.779 88.3801 32.2825 88.8283C21.3736 90.2269 10.9542 85.9146 7.1081 83.5836L0.464844 98.968C15.5695 104.842 26.5717 105.378 30.1847 104.912C34.1473 104.912 43.8208 103.374 50.8137 97.2198C59.5548 89.5276 55.4923 77.8816 51.513 73.0943C46.2683 66.7847 27.7374 64.0035 27.0381 64.0035C23.1918 64.0035 19.3457 59.8649 24.9402 57.3603C32.1295 54.1417 42.7721 59.2251 46.9679 61.556Z" fill="white" stroke="white" stroke-width="0.69929"/>
<path d="M80.8838 104.197H62.0029V62.589L80.8838 82.5187V104.197Z" fill="white" stroke="white" stroke-width="0.69929"/>
<path d="M116.547 104.546V81.1202L135.777 56.2954V104.546H116.547Z" fill="white" stroke="white" stroke-width="0.69929"/>
<path d="M100.663 100.835C98.7185 100.835 96.8938 100.106 95.5567 98.7702L63.7139 65.9539C60.6762 63.1568 60.5522 58.4184 63.4696 55.3779C66.2668 52.3402 71.0052 52.2199 74.0429 55.1373L97.3814 71.7851C98.7185 73.0018 100.784 72.7575 101.876 71.3012L157.178 2.9927C159.612 -0.289296 164.35 -1.01749 167.631 1.53631C170.913 3.96518 171.641 8.7073 169.088 11.9884L106.619 97.7977C105.282 99.4984 103.337 100.591 101.268 100.715C101.027 100.835 100.904 100.835 100.663 100.835Z" fill="#39B54A"/>
<path fill-rule="evenodd" clip-rule="evenodd" d="M187.146 42.8704L213.719 104.408L213.93 104.896H191.491L191.399 104.687L186.597 93.7073H164.348L160.583 104.66L160.502 104.896H138.39L138.604 104.407L165.526 42.8685L165.618 42.6595H187.055L187.146 42.8704ZM175.662 63.1556L169.369 78.5403L169.172 79.0228H182.801L182.604 78.5403L176.31 63.1556L175.986 62.3646L175.662 63.1556Z" fill="white"/>
<path d="M216.549 42.659C227.623 42.7756 250.323 43.0086 252.559 43.0086C253.741 43.0087 255.305 43.4348 256.748 43.9461C258.2 44.4604 259.575 45.0776 260.402 45.491C270.333 49.6139 274.326 58.321 274.148 66.6434C273.975 74.7834 269.805 82.6413 263.216 85.4783L275.23 104.358L275.572 104.895H252.366L252.264 104.734L242.577 89.5115H237.523V104.895H215.492L215.496 104.542L216.195 43.0047L216.199 42.6551L216.549 42.659ZM236.824 59.0926V73.4285H246.614C255.355 71.3307 254.446 60.7709 246.614 59.0926H236.824Z" fill="white"/>
<path d="M275.985 58.7429V42.6592H332.278V59.4422H314.446V103.847H294.167V59.4422H275.985V58.7429Z" fill="white"/>
</svg>
