<svg viewBox="0 0 32 32" xmlns="http://www.w3.org/2000/svg" xmlns:xlink="http://www.w3.org/1999/xlink" width="32.000000" height="32.000000" fill="none">
	<rect id="viber 2" width="32.000000" height="32.000000" x="0.000000" y="0.000000" fill="rgb(255,255,255)" fill-opacity="0" />
	<path id="Vector" d="M22.2341 3.50406C18.0392 2.56635 13.689 2.56635 9.4941 3.50406L9.04209 3.60407C7.8618 3.86717 6.77769 4.4527 5.91045 5.29545C5.04321 6.1382 4.42689 7.20511 4.13009 8.3774C3.06861 12.5677 3.06861 16.9564 4.13009 21.1467C4.41317 22.2648 4.98713 23.2879 5.79367 24.1122C6.60019 24.9365 7.61056 25.5326 8.72209 25.84L9.3421 29.5414C9.36189 29.6589 9.41283 29.769 9.48961 29.8602C9.56639 29.9513 9.66621 30.0202 9.77863 30.0598C9.89111 30.0992 10.0121 30.1079 10.129 30.0847C10.2459 30.0615 10.3545 30.0074 10.4435 29.9281L14.0848 26.6708C16.8182 26.8357 19.5613 26.6171 22.2341 26.0214L22.6874 25.9214C23.8677 25.6583 24.9519 25.0728 25.8191 24.23C26.6864 23.3873 27.3026 22.3203 27.5994 21.148C28.661 16.9578 28.661 12.569 27.5994 8.37873C27.3025 7.20628 26.686 6.13925 25.8185 5.29648C24.951 4.45371 23.8667 3.86828 22.6861 3.60539L22.2341 3.50406ZM10.6195 8.26939C10.3716 8.23311 10.1189 8.283 9.90343 8.41073L9.88481 8.41073C9.38477 8.70406 8.9341 9.0734 8.5501 9.50807C8.2301 9.87736 8.05676 10.2507 8.01143 10.6107C7.98477 10.8241 8.00343 11.04 8.06609 11.244L8.09009 11.2574C8.45009 12.3147 8.91943 13.3321 9.49276 14.2894C10.2323 15.6339 11.142 16.8774 12.1995 17.9894L12.2315 18.0347L12.2821 18.0721L12.3127 18.108L12.3501 18.14C13.4661 19.2005 14.7125 20.1145 16.0595 20.86C17.5994 21.6987 18.5341 22.0948 19.0955 22.2601L19.0955 22.268C19.2595 22.3188 19.4088 22.3414 19.5595 22.3414C20.0377 22.3071 20.4906 22.1126 20.8448 21.7894C21.2781 21.4054 21.6448 20.9534 21.9301 20.4507L21.9301 20.4414C22.1981 19.9348 22.1075 19.4574 21.7207 19.1334C20.9448 18.4539 20.1048 17.8512 19.2128 17.3334C18.6155 17.0094 18.0087 17.2054 17.7634 17.5334L17.2395 18.1947C16.9701 18.5227 16.4821 18.4774 16.4821 18.4774L16.4688 18.4854C12.8274 17.5561 11.8554 13.8694 11.8554 13.8694C11.8554 13.8694 11.8101 13.3681 12.1474 13.1121L12.8034 12.5841C13.1181 12.3281 13.3367 11.7227 12.9995 11.1254C12.4828 10.234 11.8814 9.39452 11.2034 8.61873C11.0551 8.43656 10.8474 8.31242 10.6167 8.26807M16.7714 6.66673C16.5946 6.66673 16.425 6.73696 16.3 6.86199C16.175 6.98702 16.1047 7.15658 16.1047 7.33339C16.1047 7.51021 16.175 7.67977 16.3 7.8048C16.425 7.92983 16.5946 8.00006 16.7714 8.00006C18.4581 8.00006 19.8581 8.55073 20.9661 9.60673C21.5354 10.1841 21.9795 10.8681 22.2701 11.6174C22.5621 12.368 22.6955 13.1694 22.6608 13.9721C22.6571 14.0596 22.6707 14.147 22.7008 14.2294C22.7309 14.3116 22.7769 14.3871 22.8363 14.4517C22.956 14.5819 23.1226 14.6593 23.2994 14.6667C23.4763 14.6742 23.6488 14.611 23.779 14.4913C23.9093 14.3715 23.9866 14.2049 23.9941 14.028C24.0338 13.0408 23.8701 12.056 23.5127 11.1348C23.1539 10.2088 22.6073 9.36721 21.9074 8.66273L21.8941 8.6494C20.5195 7.33606 18.7795 6.66673 16.7714 6.66673ZM16.7261 8.85873C16.5492 8.85873 16.3797 8.92896 16.2547 9.05399C16.1297 9.17902 16.0595 9.34858 16.0595 9.52539C16.0595 9.70223 16.1297 9.87173 16.2547 9.99682C16.3797 10.1218 16.5492 10.192 16.7261 10.192L16.7488 10.192C17.9648 10.2787 18.8501 10.684 19.4701 11.3494C20.1061 12.0347 20.4354 12.8867 20.4101 13.9401C20.406 14.1169 20.4723 14.288 20.5945 14.4159C20.7167 14.5438 20.8847 14.618 21.0614 14.6221C21.2382 14.6262 21.4095 14.5598 21.5374 14.4376C21.6653 14.3155 21.7394 14.1475 21.7434 13.9707C21.7754 12.588 21.3301 11.3947 20.4474 10.4427L20.4474 10.4401C19.5447 9.47206 18.3061 8.96006 16.8154 8.86007L16.7927 8.8574L16.7261 8.85873ZM16.7008 11.0921C16.6115 11.0841 16.5216 11.0944 16.4365 11.1221C16.3512 11.1497 16.2725 11.1942 16.2049 11.2529C16.1373 11.3116 16.0822 11.3834 16.043 11.4639C16.0037 11.5445 15.9811 11.632 15.9764 11.7214C15.9718 11.8109 15.9852 11.9003 16.0158 11.9845C16.0466 12.0687 16.0939 12.1458 16.155 12.2112C16.2162 12.2767 16.2899 12.3291 16.3717 12.3655C16.4535 12.4018 16.5419 12.4213 16.6315 12.4227C17.1888 12.4521 17.5447 12.62 17.7687 12.8454C17.9941 13.072 18.1621 13.436 18.1928 14.0054C18.1944 14.0949 18.2141 14.1831 18.2506 14.2647C18.287 14.3465 18.3396 14.42 18.4051 14.481C18.4706 14.542 18.5477 14.5891 18.6318 14.6197C18.7159 14.6502 18.8053 14.6635 18.8947 14.6587C18.9841 14.654 19.0715 14.6313 19.1519 14.592C19.2323 14.5528 19.304 14.4977 19.3626 14.4302C19.4213 14.3626 19.4658 14.2839 19.4934 14.1988C19.5211 14.1137 19.5313 14.0239 19.5234 13.9348C19.4807 13.1348 19.2301 12.428 18.7168 11.9081C18.2007 11.388 17.4981 11.1348 16.7008 11.0921Z" fill="rgb(15,30,35)" fill-rule="evenodd" />
</svg>
