<svg viewBox="0 0 32 32" xmlns="http://www.w3.org/2000/svg" xmlns:xlink="http://www.w3.org/1999/xlink" width="32.000000" height="32.000000" fill="none">
	<rect id="insta 1" width="32.000000" height="32.000000" x="0.000000" y="0.000000" fill="rgb(255,255,255)" fill-opacity="0" />
	<path id="Vector" d="M17.3708 2.6665C18.8708 2.6705 19.6321 2.67851 20.2895 2.69718L20.5481 2.7065C20.8467 2.71717 21.1414 2.7305 21.4974 2.7465C22.9161 2.81317 23.8841 3.03717 24.7335 3.36651C25.6135 3.70518 26.3548 4.16383 27.0961 4.90384C27.7744 5.57015 28.2991 6.37647 28.6334 7.2665C28.9628 8.11583 29.1868 9.08383 29.2534 10.5038C29.2694 10.8585 29.2828 11.1532 29.2935 11.4532L29.3014 11.7118C29.3214 12.3678 29.3295 13.1291 29.3321 14.6292L29.3334 15.6239L29.3334 17.3705C29.3367 18.343 29.3265 19.3156 29.3028 20.2878L29.2947 20.5465C29.2841 20.8465 29.2708 21.1412 29.2548 21.4958C29.1881 22.9158 28.9615 23.8825 28.6334 24.7331C28.2991 25.6232 27.7744 26.4295 27.0961 27.0959C26.4298 27.7741 25.6235 28.2988 24.7335 28.6331C23.8841 28.9626 22.9161 29.1866 21.4974 29.2532L20.5481 29.2931L20.2895 29.3012C19.6321 29.3198 18.8708 29.3292 17.3708 29.3318L16.3761 29.3332L14.6308 29.3332C13.6578 29.3366 12.6848 29.3264 11.7121 29.3025L11.4535 29.2945C11.1369 29.2826 10.8205 29.2688 10.5041 29.2532C9.08544 29.1866 8.11744 28.9626 7.26678 28.6331C6.37721 28.2986 5.57136 27.7739 4.90544 27.0959C4.2267 26.4297 3.70159 25.6233 3.36677 24.7331C3.03744 23.8839 2.81344 22.9158 2.74678 21.4958L2.70678 20.5465L2.7001 20.2878C2.67552 19.3156 2.66441 18.343 2.66678 17.3705L2.66678 14.6292C2.66308 13.6567 2.67286 12.6841 2.69611 11.7118L2.70544 11.4532C2.7161 11.1532 2.72944 10.8585 2.74544 10.5038C2.8121 9.08383 3.0361 8.11717 3.36544 7.2665C3.70104 6.3761 4.22707 5.56975 4.90678 4.90384C5.57231 4.2259 6.37769 3.70127 7.26678 3.36651C8.11744 3.03717 9.0841 2.81317 10.5041 2.7465C10.8588 2.7305 11.1548 2.71717 11.4535 2.7065L11.7121 2.6985C12.6843 2.67481 13.6569 2.66459 14.6294 2.66783L17.3708 2.6665ZM16.0001 9.33317C14.232 9.33317 12.5363 10.0355 11.286 11.2858C10.0358 12.5361 9.33344 14.2317 9.33344 15.9998C9.33344 17.768 10.0358 19.4636 11.286 20.7139C12.5363 21.9642 14.232 22.6665 16.0001 22.6665C17.7682 22.6665 19.464 21.9642 20.7142 20.7139C21.9644 19.4636 22.6668 17.768 22.6668 15.9998C22.6668 14.2317 21.9644 12.5361 20.7142 11.2858C19.464 10.0355 17.7682 9.33317 16.0001 9.33317ZM16.0001 11.9998C16.5254 11.9997 17.0455 12.1031 17.5309 12.304C18.0162 12.505 18.4572 12.7995 18.8287 13.1709C19.2002 13.5423 19.4949 13.9833 19.696 14.4685C19.8971 14.9537 20.0007 15.4739 20.0008 15.9992C20.0009 16.5244 19.8975 17.0446 19.6966 17.5299C19.4956 18.0153 19.2011 18.4563 18.8297 18.8278C18.4583 19.1993 18.0174 19.494 17.5321 19.6951C17.0469 19.8962 16.5267 19.9997 16.0015 19.9998C14.9406 19.9998 13.9232 19.5784 13.173 18.8282C12.4229 18.0781 12.0015 17.0607 12.0015 15.9998C12.0015 14.939 12.4229 13.9216 13.173 13.1714C13.9232 12.4213 14.9406 11.9998 16.0015 11.9998M23.0014 7.33317C22.5594 7.33317 22.1355 7.50876 21.8229 7.82133C21.5104 8.13389 21.3348 8.55781 21.3348 8.99984C21.3348 9.44186 21.5104 9.86583 21.8229 10.1784C22.1355 10.4909 22.5594 10.6665 23.0014 10.6665C23.4435 10.6665 23.8674 10.4909 24.18 10.1784C24.4925 9.86583 24.6681 9.44186 24.6681 8.99984C24.6681 8.55781 24.4925 8.13389 24.18 7.82133C23.8674 7.50876 23.4435 7.33317 23.0014 7.33317Z" fill="rgb(14,29,34)" fill-rule="nonzero" />
</svg>
