<svg viewBox="0 0 32 32" xmlns="http://www.w3.org/2000/svg" xmlns:xlink="http://www.w3.org/1999/xlink" width="32.000000" height="32.000000" fill="none">
	<rect id="facebook 2" width="32.000000" height="32.000000" x="0.000000" y="0.000000" fill="rgb(255,255,255)" fill-opacity="0" />
	<path id="Vector" d="M12.263 28.6668L17.5963 28.6668L17.5963 17.9868L22.4017 17.9868L22.9297 12.6802L17.5963 12.6802L17.5963 10.0002C17.5963 9.64654 17.7368 9.3074 17.9869 9.05736C18.2369 8.80731 18.5761 8.66683 18.9297 8.66683L22.9297 8.66683L22.9297 3.3335L18.9297 3.3335C17.1616 3.3335 15.4659 4.03588 14.2157 5.28612C12.9654 6.53636 12.263 8.23206 12.263 10.0002L12.263 12.6802L9.59636 12.6802L9.06836 17.9868L12.263 17.9868L12.263 28.6668Z" fill="rgb(14,29,34)" fill-rule="nonzero" />
</svg>
