<svg viewBox="0 0 32 32" xmlns="http://www.w3.org/2000/svg" xmlns:xlink="http://www.w3.org/1999/xlink" width="32.000000" height="32.000000" fill="none">
	<defs>
		<filter id="pixso_custom_mask_type_outline">
			<feColorMatrix type="matrix" values="0 0 0 0 1 0 0 0 0 1 0 0 0 0 1 0 0 0 1 0 " />
		</filter>
	</defs>
	<mask id="mask_0" width="32.000000" height="32.000000" x="0.000000" y="0.000000" maskUnits="userSpaceOnUse">
		<g filter="url(#pixso_custom_mask_type_outline)">
			<g id="clip0_75_915">
				<path id="Vector" d="M32 0L0 0L0 32L32 32L32 0Z" fill="rgb(255,255,255)" fill-rule="evenodd" />
			</g>
		</g>
	</mask>
	<rect id="google (1) 1" width="32.000000" height="32.000000" x="0.000000" y="0.000000" fill="rgb(255,255,255)" fill-opacity="0" />
	<g id="Clip path group" mask="url(#mask_0)">
		<g id="Group">
			<path id="Vector" d="M11.1467 1.05274C7.94946 2.16191 5.19211 4.26716 3.27973 7.05924C1.36735 9.85133 0.400732 13.1831 0.52186 16.5652C0.642987 19.9472 1.84548 23.2013 3.95269 25.8494C6.05991 28.4975 8.9608 30.4001 12.2293 31.2778C14.8791 31.9615 17.6553 31.9915 20.3192 31.3653C22.7326 30.8232 24.9637 29.6636 26.7942 28.0002C28.6995 26.2161 30.0823 23.9465 30.7942 21.4352C31.5681 18.7045 31.7058 15.8326 31.1968 13.0402L16.3168 13.0402L16.3168 19.2127L24.9343 19.2127C24.762 20.1973 24.3929 21.1368 23.8491 21.9753C23.3054 22.8138 22.5979 23.534 21.7692 24.0927C20.717 24.7888 19.5307 25.2572 18.2868 25.4678C17.0391 25.6998 15.7594 25.6998 14.5118 25.4678C13.2472 25.2063 12.051 24.6844 10.9992 23.9353C9.30963 22.7392 8.04095 21.04 7.37426 19.0802C6.69629 17.0838 6.69629 14.9193 7.37426 12.9227C7.84882 11.5232 8.63334 10.2491 9.66926 9.19524C10.8547 7.9671 12.3556 7.08923 14.0071 6.65793C15.6587 6.22662 17.3972 6.25857 19.0318 6.75024C20.3087 7.14222 21.4763 7.82708 22.4418 8.75024C23.4134 7.78357 24.3834 6.81441 25.3518 5.84274C25.8518 5.32023 26.3968 4.82274 26.8892 4.28774C25.4156 2.91643 23.6859 1.84939 21.7992 1.14774C18.3635 -0.0997865 14.6042 -0.133313 11.1467 1.05274Z" fill="rgb(14,29,34)" fill-rule="nonzero" />
		</g>
	</g>
</svg>
