<svg viewBox="0 0 32 32" xmlns="http://www.w3.org/2000/svg" xmlns:xlink="http://www.w3.org/1999/xlink" width="32.000000" height="32.000000" fill="none">
	<rect id="tiktok 2" width="32.000000" height="32.000000" x="0.000000" y="0.000000" fill="rgb(255,255,255)" fill-opacity="0" />
	<path id="Vector" d="M21.3333 10.9932L21.3333 20.6665C21.3329 22.4666 20.7721 24.2218 19.7286 25.6886C18.6851 27.1553 17.2108 28.2608 15.5104 28.8514C13.81 29.4421 11.9679 29.4886 10.2398 28.9846C8.5118 28.4805 6.98357 27.4509 5.86738 26.0386C4.75118 24.6265 4.10242 22.9018 4.01115 21.104C3.91988 19.3062 4.39065 17.5247 5.35809 16.0067C6.32552 14.4888 7.74161 13.3096 9.40973 12.6331C11.0778 11.9567 12.9152 11.8165 14.6667 12.2319L14.6667 16.4492C13.7531 16.0158 12.7235 15.8909 11.7328 16.0933C10.7421 16.2956 9.84398 16.8143 9.17347 17.5711C8.50299 18.328 8.09649 19.2822 8.01514 20.2901C7.93378 21.298 8.18197 22.3049 8.72236 23.1596C9.26275 24.0142 10.0661 24.6702 11.0115 25.0288C11.9569 25.3875 12.9933 25.4293 13.9645 25.1482C14.9358 24.8669 15.7894 24.2778 16.3969 23.4696C17.0045 22.6614 17.3331 21.6776 17.3333 20.6665L17.3333 2.6665L21.3333 2.6665C21.3333 4.43461 22.0357 6.13031 23.2859 7.38055C24.5362 8.63079 26.2319 9.33317 28 9.33317L28 13.3332C25.576 13.3364 23.2237 12.5107 21.3333 10.9932Z" fill="rgb(15,29,34)" fill-rule="nonzero" />
</svg>
