<svg viewBox="0 0 32 28" xmlns="http://www.w3.org/2000/svg" xmlns:xlink="http://www.w3.org/1999/xlink" width="32.000000" height="28.000000" fill="none">
	<rect id="youtube 2" width="32.000000" height="28.000000" x="0.000000" y="0.000000" fill="rgb(255,255,255)" fill-opacity="0" />
	<path id="Vector" d="M30.5368 6.78579C30.1879 5.49243 29.1597 4.47382 27.8544 4.12814C25.4883 3.5 16.0005 3.5 16.0005 3.5C16.0005 3.5 6.51269 3.5 4.14652 4.12814C2.84114 4.47387 1.81302 5.49243 1.46408 6.78579C0.830078 9.13008 0.830078 14.0212 0.830078 14.0212C0.830078 14.0212 0.830078 18.9124 1.46408 21.2566C1.81302 22.55 2.84114 23.5261 4.14652 23.8718C6.51269 24.5 16.0005 24.5 16.0005 24.5C16.0005 24.5 25.4883 24.5 27.8544 23.8718C29.1597 23.5261 30.1879 22.55 30.5368 21.2566C31.1708 18.9124 31.1708 14.0212 31.1708 14.0212C31.1708 14.0212 31.1708 9.13008 30.5368 6.78579ZM12.8975 18.462L12.8975 9.58043L20.8274 14.0213L12.8975 18.462Z" fill="rgb(14,29,34)" fill-rule="nonzero" />
</svg>
